M48
; DRILL file {KiCad 7.0.6} date Tue Apr 30 14:13:10 2024
; FORMAT={-:-/ absolute / inch / decimal}
; #@! TF.CreationDate,2024-04-30T14:13:10+02:00
; #@! TF.GenerationSoftware,Kicad,Pcbnew,7.0.6
; #@! TF.FileFunction,MixedPlating,1,2
FMAT,2
INCH
; #@! TA.AperFunction,Plated,PTH,ViaDrill
T1C0.0157
; #@! TA.AperFunction,Plated,PTH,ComponentDrill
T2C0.0300
; #@! TA.AperFunction,Plated,PTH,ComponentDrill
T3C0.0315
; #@! TA.AperFunction,Plated,PTH,ComponentDrill
T4C0.0354
; #@! TA.AperFunction,Plated,PTH,ComponentDrill
T5C0.0374
; #@! TA.AperFunction,Plated,PTH,ComponentDrill
T6C0.0394
; #@! TA.AperFunction,Plated,PTH,ComponentDrill
T7C0.0906
%
G90
G05
T1
X4.0846Y-3.4114
X4.0866Y-3.565
X4.2756Y-4.2598
X4.2913Y-3.6555
X4.3051Y-3.5512
X4.3169Y-3.439
X4.4429Y-4.0433
X4.4764Y-4.3917
X4.5098Y-3.6024
X4.5295Y-4.4291
X4.6122Y-4.4882
X4.8406Y-3.8425
X5.2185Y-4.3898
X5.3327Y-4.4567
X5.3346Y-4.7067
X5.4055Y-4.1102
X5.4429Y-4.6555
X5.4488Y-4.0945
X5.4843Y-4.5689
X5.5374Y-3.4783
X5.5807Y-3.8307
X5.5965Y-4.3681
X5.6181Y-3.7087
X5.6673Y-4.3996
X5.7028Y-3.5768
X5.7677Y-4.5906
X5.811Y-3.8051
X5.813Y-3.6457
X5.8366Y-3.8957
X5.8386Y-3.5335
X5.9035Y-3.9134
X5.9665Y-4.5807
X5.9882Y-3.2933
X6.0098Y-3.878
X6.0591Y-3.689
X6.1713Y-3.8012
X6.1732Y-4.5256
X6.2795Y-3.7776
X6.6831Y-4.0709
X6.7638Y-3.6634
X6.937Y-4.1693
X7.1772Y-3.6713
T2
X4.5886Y-3.3944
X4.5886Y-3.4732
X4.5886Y-3.5519
X4.5886Y-3.6306
X4.5886Y-3.7094
X4.5886Y-3.7881
X4.5886Y-3.8669
X4.5886Y-3.9456
X4.8051Y-4.1031
X4.8839Y-4.1031
X4.9626Y-4.1031
X5.0413Y-4.1031
X5.1201Y-4.1031
X5.1988Y-4.1031
X5.4154Y-3.3944
X5.4154Y-3.4732
X5.4154Y-3.5519
X5.4154Y-3.6306
X5.4154Y-3.7094
X5.4154Y-3.7881
X5.4154Y-3.8669
X5.4154Y-3.9456
T3
X6.8591Y-4.2795
X7.0512Y-4.2795
T4
X6.9807Y-4.747
X7.0807Y-4.747
X7.1807Y-4.747
T5
X6.7102Y-3.2441
X6.7102Y-3.3425
X6.789Y-3.2441
X6.789Y-3.3425
T6
X3.8661Y-4.8425
X3.9661Y-4.8425
X4.0661Y-4.8425
X4.1661Y-4.8425
X4.2661Y-4.8425
X4.3661Y-4.8425
X4.4661Y-4.8425
X4.5661Y-4.8425
X4.6661Y-4.8425
X4.7661Y-4.8425
X4.8661Y-4.8425
X4.9661Y-4.8425
X5.185Y-4.8465
X5.285Y-4.8465
X5.385Y-4.8465
X5.485Y-4.8465
X6.1201Y-4.6988
X6.1201Y-4.876
X6.376Y-4.6988
X6.376Y-4.876
X6.5217Y-4.6988
X6.5217Y-4.876
X6.7776Y-4.6988
X6.7776Y-4.876
T7
X6.9016Y-3.0571
X6.9016Y-3.5295
T0
M30
